<svg
    xmlns="http://www.w3.org/2000/svg"
    viewbox="0 0 1009 465"
    width="1009"
    height="465"
>
    <rect y="10" rx="10" ry="10" width="400" height="150" fill="#d3d3d3" />

    <filter id="blur">
        <feGaussianBlur stdDeviation="5" />
    </filter>

    <rect
        x="600"
        y="10"
        rx="10"
        ry="10"
        width="400"
        height="150"
        fill="#d3d3d3"
        filter="url(#blur)"
    />
    <rect
        x="300"
        y="310"
        rx="10"
        ry="10"
        width="400"
        height="150"
        fill="#d3d3d3"
        filter="url(#blur)"
    />
    <rect
        x="300"
        y="310"
        rx="10"
        ry="10"
        width="400"
        height="150"
        fill="#020307"
    />

    <g transform="translate(175 42) scale(0.75)">

  <g stroke-linecap="round"><g
                transform="translate(298.36508128190235 50.60074319535852) rotate(0 131.13272756508832 -0.9949955466639722)"
            ><path
                    d="M0.14 -1.25 C57.48 4.43, 110.64 4.25, 262.37 -3.25 M-0.1 -1.2 C99.83 1.83, 199.32 0.28, 261.93 -4.72"
                    stroke="#ffffff"
                    stroke-width="1"
                    fill="none"
                /></g><g
                transform="translate(298.36508128190235 50.60074319535852) rotate(0 131.13272756508832 -0.9949955466639722)"
            ><path
                    d="M262.84 -1.61 L245.73 2.16 L245.27 -9.1 L263.47 -6.28"
                    stroke="none"
                    stroke-width="0"
                    fill="#ffffff"
                    fill-rule="evenodd"
                /><path
                    d="M262.07 -5.89 C259.49 -1.7, 253.14 0.4, 250.47 2.65 M261.84 -5.85 C257.02 -2.99, 251.71 -0.45, 250.07 1.27 M251.05 2.36 C248.55 -2.67, 249.32 -3.43, 246 -11.31 M249.58 3.26 C248.24 -3.24, 248.18 -7.18, 247.71 -9.07 M250.81 -12.97 C253.12 -11.22, 256.89 -6.85, 262.49 -6.74 M249.04 -11.03 C251.21 -9.92, 254.74 -7.1, 261.78 -3.52 M261.93 -4.72 C261.93 -4.72, 261.93 -4.72, 261.93 -4.72 M261.93 -4.72 C261.93 -4.72, 261.93 -4.72, 261.93 -4.72"
                    stroke="#ffffff"
                    stroke-width="1"
                    fill="none"
                /></g></g><g
            transform="translate(367.8271570387333 10) rotate(0 59.5 12)"
        ><text
                x="20"
                y="22"
                font-family="Inconsolata,Monaco,Consolas,Courier New,Courier,monospace"
                font-size="22px"
                fill="#ffffff"
                text-anchor="start"
                style="white-space: pre;"
                direction="ltr"
            >blur()</text></g><g
            transform="translate(379.74152739046986 253.65835448828398) rotate(0 48 12)"
        ><text
                x="8"
                y="13"
                font-family="Inconsolata,Monaco,Consolas,Courier New,Courier,monospace"
                font-size="22px"
                fill="#ffffff"
                text-anchor="start"
                style="white-space: pre;"
                direction="ltr"
            >clip()</text></g><g stroke-linecap="round"><g
                transform="translate(11.073163060425031 156.97287559203278) rotate(0 182.78577955746186 55.843330688438186)"
            ><path
                    d="M0.25 -1.07 C8.29 15.85, -11.75 82.31, 49.31 100.81 C110.38 119.32, 313.71 108.28, 366.64 109.95 M-1.07 0.99 C6.75 18.15, -12.49 83.97, 48.66 102.25 C109.8 120.52, 312.7 109.06, 365.8 110.64"
                    stroke="#ffffff"
                    stroke-width="1"
                    fill="none"
                /></g><g
                transform="translate(11.073163060425031 156.97287559203278) rotate(0 182.78577955746186 55.843330688438186)"
            ><path
                    d="M363.9 110.03 L351.94 117.14 L352.58 104.38 L367.42 112.28"
                    stroke="none"
                    stroke-width="0"
                    fill="#ffffff"
                    fill-rule="evenodd"
                /><path
                    d="M364.46 111.33 C360.21 113.03, 353.65 115.95, 351.86 118.61 M365.78 111.08 C361.45 113.37, 358.04 114.6, 351.6 116.79 M351.23 116.91 C351.62 112.66, 353.18 110.62, 351.59 103.72 M352.76 117.7 C352.16 112.95, 352.23 107.73, 352.01 104.01 M352.74 103.02 C355.21 105.35, 360.83 109.56, 365.19 110.33 M352.33 103.84 C354.85 105.67, 358.54 108.11, 365.79 110.49 M365.8 110.64 C365.8 110.64, 365.8 110.64, 365.8 110.64 M365.8 110.64 C365.8 110.64, 365.8 110.64, 365.8 110.64"
                    stroke="#ffffff"
                    stroke-width="1"
                    fill="none"
                /></g></g><g stroke-linecap="round"><g
                transform="translate(425.0867277315774 277.0231538878429) rotate(0 0.3058898840240545 38.680799142182195)"
            ><path
                    d="M0.04 1.06 C0.42 13.92, 1.65 64.34, 2.01 76.79 M-1.4 0.57 C-1.18 13.09, 0.4 62.14, 0.85 74.84"
                    stroke="#ffffff"
                    stroke-width="1"
                    fill="none"
                /></g><g
                transform="translate(425.0867277315774 277.0231538878429) rotate(0 0.3058898840240545 38.680799142182195)"
            ><path
                    d="M2.71 76.79 L-6.64 59.6 L4.93 60.73 L0.43 73.46"
                    stroke="none"
                    stroke-width="0"
                    fill="#ffffff"
                    fill-rule="evenodd"
                /><path
                    d="M2.17 74.34 C-0.59 70.86, -3.73 68.89, -5.29 61.93 M0.97 74.66 C-0.7 70.59, -4.32 65.99, -5.57 61.57 M-4.91 60.98 C0.14 61.01, 3.43 60.32, 6.11 61.15 M-6.13 61.62 C-3.42 61.51, -0.76 61.74, 6.93 60.81 M5.86 62.36 C3.56 64.51, 3.36 72.15, 0.69 73.63 M6.8 61.07 C4.9 64.61, 4.32 67.77, 0.11 74.59 M0.85 74.84 C0.85 74.84, 0.85 74.84, 0.85 74.84 M0.85 74.84 C0.85 74.84, 0.85 74.84, 0.85 74.84"
                    stroke="#ffffff"
                    stroke-width="1"
                    fill="none"
                /></g></g><g stroke-linecap="round"><g
                transform="translate(819.5323437567195 162.74997657274298) rotate(0 -170.47875682945096 52.99468963696802)"
            ><path
                    d="M-0.12 -0.97 C-6.96 14.9, 16.09 78.7, -40.51 96.39 C-97.12 114.08, -290 103.91, -339.78 105.19 M-1.65 1.14 C-8.16 17.18, 18.24 77.13, -38.29 94.7 C-94.82 112.27, -290.73 104.9, -340.83 106.57"
                    stroke="#ffffff"
                    stroke-width="1"
                    fill="none"
                /></g><g
                transform="translate(819.5323437567195 162.74997657274298) rotate(0 -170.47875682945096 52.99468963696802)"
            ><path
                    d="M-339.19 107.69 L-328.58 101.2 L-327.27 114.68 L-341.24 108.13"
                    stroke="none"
                    stroke-width="0"
                    fill="#ffffff"
                    fill-rule="evenodd"
                /><path
                    d="M-342.04 105.41 C-335.21 103.71, -331.43 102.3, -328.46 101.29 M-341.08 105.85 C-337.24 104.73, -332.04 102.54, -326.97 99.76 M-327.88 99.43 C-328.07 103.43, -326.92 109.1, -326.47 112.27 M-326.64 100.82 C-326.74 104.49, -327.95 108.61, -327.34 112.78 M-328.02 114.08 C-330.13 110.14, -333.2 110.33, -342.25 106.93 M-327.65 112.44 C-333.16 110.72, -338.1 107.54, -340.6 107.04 M-340.83 106.57 C-340.83 106.57, -340.83 106.57, -340.83 106.57 M-340.83 106.57 C-340.83 106.57, -340.83 106.57, -340.83 106.57"
                    stroke="#ffffff"
                    stroke-width="1"
                    fill="none"
                /></g></g></g>
</svg>
